<?xml version="1.0" encoding="UTF-8"?>
<svg xmlns="http://www.w3.org/2000/svg" xmlns="http://www.w3.org/2000/svg" viewBox="2070.17 654.34 666.03 573.98" preserveAspectRatio="xMidYMid meet"><g id="au" class="landxx coastxx au geo-shape country region-0" data-name="Australia">
    <title id="title599">Australia</title>
    <path id="path3366" d="m 2372.74,919.58 c 0.95,-0.581 0.16,-1.505 -0.1,-2.23 -0.83,0.637 -0.44,1.545 0.1,2.23" />
    <path id="path3368" d="m 2389.59,935.50 c 0.68,-0.277 0.63,-1.002 0.29,-1.521 -0.1,0.507 -0.2,1.013 -0.29,1.521" />
    <path id="path3294" d="m 2278.49,857.74 c 0.48,-0.958 0.34,-1.988 0,-2.961 -0.79,1.058 -0.33,1.845 0,2.961" />
    <path id="path3298" d="m 2284.18,860.54 c 0.14,-0.144 0.29,-0.287 0.44,-0.431 -0.41,-0.291 -0.56,-0.147 -0.44,0.431" />
    <path id="path3310" d="m 2305.06,864.14 c 0.28,-0.319 0.57,-0.629 0.87,-0.93 -0.57,0.02 -0.89,0.36 -0.87,0.93" />
    <path id="path3312" d="m 2305.35,860.69 c 0.79,-0.309 1.56,-0.767 2.02,-1.51 -0.55,0.704 -1.6,0.664 -2.02,1.51" />
    <path id="path3318" d="m 2308.01,858.67 c 1.21,-0.701 2.16,-2.196 2.24,-3.601 -0.24,1.41 -1.53,2.436 -2.24,3.601" />
    <path id="path3288" d="m 2262.01,861.98 c 0.38,-0.05 0.74,-0.172 1.08,-0.36 -0.2,-0.75 -1.15,-0.846 -1.15,-1.664 -0.13,-0.33 -0.3,-0.638 -0.51,-0.926 0.1,-0.507 0,-1.01 -0.1,-1.51 -1.12,0.416 -1.3,1.139 -1.41,2.23 -0.1,0.81 -1.33,1.308 -0.89,2.161 1.06,-0.269 1.91,-0.367 2.95,0.07" />
    <path id="path3290" d="m 2268.06,858.10 c -0.23,-0.969 -1.31,-0.986 -1.52,0 -0.73,-0.979 -1.83,0.04 -2.77,-0.235 -0.39,-0.115 -1.61,-1.633 -1.91,-0.734 -0.55,1.704 1.64,5.897 3.77,5.419 1.21,-0.272 3.64,-1.854 4.02,-3.113 0.17,-0.54 1.14,-2.217 -0.3,-2.497 -1.01,-0.198 -1.96,-0.118 -1.29,1.16" />
    <path id="path3334" d="m 2317.30,1110.60 c 0.36,-0.21 0.65,-0.49 0.87,-0.86 -0.57,0 -0.89,0.29 -0.87,0.86" />
    <path id="path3336" d="m 2318.89,1109.81 c 0.4,-0.1 1.67,-1.17 0.83,-1.5 -0.72,-0.29 -2.6,0.1 -2.35,1.14 0.59,-0.24 1.1,-0.12 1.52,0.36" />
    <path id="path3286" d="m 2261.07,1071.65 c 0.76,-0.21 1.34,-0.78 1.97,-1.22 1.01,-0.71 1.54,-0.24 2.62,-0.31 0.87,-0.1 1.6,-1.1 0.31,-1.27 -0.17,0 -0.3,0.17 -0.37,0.33 -0.5,0.4 -1.41,-0.35 -1.94,-0.34 1.88,-1.77 -5.81,-0.33 -6.16,-0.23 -0.75,0.21 -2.91,1.43 -1.75,2.47 1.52,1.37 3.86,-1.07 5.32,0.57" />
    <path id="path3300" d="m 2299.66,1129.32 c 0.1,0.79 0.59,1.68 -0.43,2.09 1.26,0.3 0.94,-1.22 1.85,-1.49 1.2,-0.37 1.85,1.33 0.6,1.78 0.31,-1.6 -1.15,-0.26 -1.06,0.53 0.1,0.93 0.88,0.77 1.28,0.11 -0.36,2.03 1.72,-1.46 2.01,-1.94 -1.3,-0.12 -0.38,-0.77 0.19,-1.44 0.69,-0.83 1.52,-1.52 2.23,-2.33 0.59,-0.66 0.94,-1.49 1.64,-2.05 0.6,-0.49 1.69,-1.03 1.85,-1.87 0.36,0.75 0.14,1.61 -0.37,2.22 1.09,-0.41 1.32,-1.73 1.73,-2.67 0.59,-1.33 1.56,-2.5 2.32,-3.74 1.02,-1.67 3.86,-4.52 2.04,-6.17 -0.92,-0.83 -1.2,0.92 -2.19,0.74 -1.31,-0.26 -1.9,0.36 -3.01,0.92 -0.51,0.26 -6.07,-0.6 -4.56,1.49 -0.8,0.27 -1.04,0 -0.72,-0.73 -1.87,-0.1 -3.64,1.49 -5.4,0.1 -0.62,-0.49 -3.76,-2 -3.38,-2.81 -1.09,0.5 -3.12,0.47 -3.53,-0.94 -2.01,2 -2.62,4.04 -3.5,6.62 -0.7,2.04 1.3,5.19 -0.82,6.7 0.25,-0.17 0.51,-0.31 0.79,-0.43 -0.1,1.03 0.57,2.26 -0.57,2.94 0.25,-0.76 0,-1.54 -0.44,-2.15 -2.48,2.43 -1.11,5.91 -1.29,8.79 0.76,-0.45 1.45,0.29 2.23,0.1 0.41,1.08 -0.9,1.35 -1.44,0.58 -0.28,0.5 -0.54,1 -0.79,1.51 1.04,-0.19 2.91,0.57 3.74,-0.29 0.12,2.83 2.92,-0.1 3.49,-0.56 0.88,-0.73 1.05,-1.08 1.26,-2.04 0.16,-0.77 1.04,-0.1 0.8,0.59 1.43,0.17 3.44,-2.87 3.45,-4.11" />
    <path id="path3306" d="m 2290.01,1105.49 c -0.21,0.36 -0.4,0.71 -0.57,1.08 1.65,-0.1 3.58,-2.3 3.58,-3.98 0,-1.4 -1.21,0.1 -1.39,0.24 -0.73,0.59 -1.69,1.65 -1.62,2.66" />
    <path id="path3338" d="m 2318.31,1105.49 c -0.1,0.45 -0.51,2.26 0.33,2.29 1.7,0.1 1.71,-1.71 2.62,-2.58 -0.99,-0.16 -1.02,-1.3 -1.65,-1.87 -0.81,0.48 -0.96,1.37 -1.3,2.16" />
    <path id="path3348" d="m 2109.15,1050.77 c 1.94,0 3.95,-2.13 4.75,-3.75 0.91,-1.83 -0.18,-4.54 1.73,-5.9 -0.46,0.37 -0.69,0.94 -0.57,1.51 0,-0.58 0.35,-0.86 0.93,-0.72 -0.49,-1.59 0.77,-3.02 1.28,-4.33 1.11,-2.86 0.61,-5.24 0.13,-8.16 -0.45,-2.71 -1.46,-5.69 -0.71,-8.44 0.72,-2.62 1.98,-6.25 1.55,-8.95 -0.18,-1.12 -0.8,-2.12 -0.84,-3.27 0,-1.19 0,-2.23 -0.45,-3.36 -0.44,-1.09 -1.44,-2.06 -1.5,-3.25 -0.1,-1.37 0.59,-2.68 0.64,-4.05 0.11,-2.65 -0.73,-5.43 -2.16,-7.64 -0.61,-0.93 -1.33,-1.92 -1.55,-3.04 -0.21,-1.02 0.67,-1.52 0.59,-2.46 0.23,0.73 0,1.45 -0.15,2.16 0.56,-0.6 0.78,-1.42 0.8,-2.23 -0.14,1.01 0.47,1.94 0.28,2.95 0.35,-1.96 0.23,1.12 0.15,1.51 1,-1.63 0.46,0 0.57,0.72 1.9,-1.02 2.79,-1.94 1.2,-3.79 -1.08,-1.26 -1.87,-4.33 -0.48,-5.64 0.65,0.58 1.1,1.56 1.3,2.39 0.27,1.14 -0.73,1.91 -0.65,3.01 0.91,0.1 1.38,-0.8 1.51,-1.58 0.15,1.15 -0.23,2.43 0.4,3.49 0.35,0.58 1.34,-0.37 1.47,-0.66 0.83,-1.92 1.52,-3.63 0.5,-5.55 -0.87,-1.64 -0.79,-3.54 -1.89,-5.03 -0.42,-0.57 -0.19,-1.05 -0.19,-1.69 0,-1.39 -0.7,-2.64 -0.88,-4 -0.28,-2.13 0.99,-4.6 2.17,-6.3 1.39,-1.98 2.37,-3.44 2.89,-5.9 0.24,-1.13 -0.58,-1.99 -0.58,-3.08 0,-1.152 1,-2.083 1.47,-3.059 0.7,-1.439 1.34,-3.89 3.07,-4.437 0.2,0.881 -0.2,1.694 -0.51,2.486 -0.44,1.114 -0.15,2.349 -0.43,3.493 2.35,-0.812 2.39,-2.038 3.53,-3.96 1.17,-1.982 3.12,-2.848 5.21,-3.518 2.97,-0.945 5.08,-2.979 7.45,-4.907 0.62,-0.502 1.35,-1.809 2.13,-1.91 1.75,-0.225 3.11,-0.909 4.29,-2.276 -0.32,1.979 1.81,0.234 2.61,0.343 0.76,0.103 1.08,0.888 1.93,0.888 1.1,0 2.14,-0.379 3.07,-0.93 2.03,-1.193 3,-2.545 5.49,-2.54 1.03,0 2.13,-0.02 2.96,-0.711 0.94,-0.784 1.29,-2.204 2.73,-2.204 2.21,0 3.56,0.368 5.75,-0.212 2.54,-0.671 4.84,-1.269 7.16,-2.519 1.87,-1.007 8.78,-5.17 7.4,-8.305 0.78,0.08 1,-0.32 1.2,-0.978 0.31,-1.022 1.25,-1.373 2.09,-1.898 1.22,-0.766 3.95,-1.973 2.68,-3.502 -1.07,-1.302 -0.39,-4.969 0.31,-6.314 0.4,-0.768 2.34,-3.65 3.43,-2.357 -0.68,-1.34 0.33,-1.19 1.2,-1.648 1.06,-0.561 1.09,-2.635 2.55,-3.323 0.6,0.808 -1.31,2.656 0.65,2.59 -1.37,1.901 2.39,5.658 2.16,7.711 1.11,-1.444 0.16,-3.775 1.08,-5.19 0.82,0.409 1.15,1.298 1.73,1.95 -0.11,-1.266 -0.3,-2.178 0.93,-2.96 -0.97,0.331 -3,-1.605 -2.16,-2.521 -0.57,-0.02 -0.89,-0.358 -0.86,-0.93 1.06,0.833 0.37,-0.195 1.32,-0.372 1.14,-0.213 -0.1,-1.481 -0.31,-1.938 0.99,-0.624 2.82,0.119 1.29,0.44 0.57,0.208 0.94,0.676 0.65,1.29 0.66,-0.178 0.77,-1.121 1.44,-1.185 0.87,-0.08 0.9,0.51 1.44,0.954 0.68,0.555 1.09,-0.444 1.82,-0.02 0.81,0.479 1.75,-0.126 2.57,0.388 -0.7,-0.862 -1.35,-0.412 -2.23,-0.72 -1.24,-0.427 -0.32,-1.336 -0.22,-2.23 0.16,0.247 0.33,0.487 0.51,0.721 1.03,-0.702 0.57,-2.255 1.8,-2.801 -0.62,-0.233 -1.06,0.149 -1.23,0.721 -0.89,-0.936 -1.51,-2.907 0,-3.609 0.69,-0.321 2.78,-0.964 1.68,-2.011 0.78,0.04 1.36,0.598 1.97,1.02 0.19,0.281 0.37,0.564 0.55,0.851 0.38,0.104 0.76,0.201 1.15,0.29 -1.12,-0.661 -0.29,-1.933 -1.94,-1.95 0.3,-0.517 0.73,-0.876 1.29,-1.08 -0.55,0.11 -1.03,0.35 -1.44,0.72 -0.1,-0.967 2.29,-2.837 2.16,-1.22 0.1,-1.644 1.21,0.432 2.23,0.22 -0.38,-0.678 -1.24,-1.392 -0.64,-2.229 -2.17,-0.116 0.38,-2.042 0.5,-2.811 0.82,0.877 1.12,-0.633 2.02,-0.07 0.23,-0.827 0.17,-1.688 0.28,-2.53 1.07,0.223 0.63,2.203 0,3.1 1.34,-1.537 0.76,-1.645 1.95,0.15 0,-0.778 0.87,-0.754 1.01,-1.44 0.1,-0.421 0.4,-1.522 0.57,-1.88 0.27,-0.58 1.31,-0.538 0.72,-1.4 -0.2,-0.179 -0.43,-0.225 -0.68,-0.135 -0.26,0.01 -0.98,-1.397 0.39,-0.334 -0.31,-0.875 1.26,-1.535 0.29,-0.141 1.59,-1.455 -0.38,1.909 1.51,1.44 -0.39,-0.88 0.47,-1.646 1.3,-1.66 -0.48,0.646 0,1.239 0.43,1.729 0.68,-0.772 2.11,-1.082 2.52,-2.09 0.32,-0.794 -0.96,-1.154 0.5,-1.755 0.83,-0.34 1.21,1.74 2.51,1.776 1.11,0.03 1.24,0.591 2.01,1.398 0.98,1.026 1.51,2.372 2.47,3.41 0.57,0.622 1.45,1.384 1.37,2.327 -0.1,1.044 -0.72,1.987 -0.9,3.028 -0.16,0.972 -0.17,2.419 -0.97,3.135 0.91,-0.45 0.29,-1.553 0.93,-2.021 0.86,-0.63 1.13,0.747 1.23,1.3 0.41,-1.003 -0.83,-1.97 -0.36,-2.949 0.57,-1.202 1.2,0.08 2.09,-0.29 -0.86,-3.462 5.99,-2.24 5.25,1.149 1.16,-0.443 0.69,-1.809 0.72,-2.729 1.61,0.138 2.12,3.335 3.46,3.02 -0.31,-0.757 -1.11,-2.159 -0.17,-2.834 0.66,-0.473 1.54,-0.08 2.18,-0.695 -1.26,0.17 -2.02,-0.212 -2.44,-1.44 0.56,-0.03 1.07,-0.221 1.51,-0.57 -1.12,0.343 -3.61,-0.539 -2.7,-2.066 0.37,-0.623 0.55,-1.556 1.11,-2.043 0.5,-0.429 1.61,-0.134 1.88,-0.855 0.42,-1.171 0.63,-2.63 1.22,-3.716 0.54,-1.005 0.98,0.124 1.69,-0.448 0.46,-0.371 1.62,-1.696 2.27,-1.311 -0.6,-0.623 -1.33,-1.755 -1.16,-2.667 0.29,-1.544 0.92,-0.312 1.6,-1.42 0.46,-0.739 0.27,-1.482 1.15,-1.994 0.63,-0.368 1.05,0.7 1.79,0.531 -0.78,-0.313 -1.03,-2.487 -0.14,-2.8 0.94,-0.331 1.59,1.875 2.45,2.079 -0.91,-0.681 -1.06,-3.17 0.64,-2.37 0.21,-0.609 -0.23,-1.345 0.53,-1.654 0.79,-0.316 1.07,0.838 1.56,-0.365 1.19,2.767 8.43,-0.1 8.57,1.58 0,-1.191 1.24,-2.052 2.3,-1.36 -1.12,-1.184 0.17,-2.972 -0.14,-4.319 -0.47,-2.057 -2.45,-1.766 -3.96,-1.08 0.1,-0.98 -1.18,-1.422 -1.73,-1.872 -0.36,-0.292 1.2,-1.252 1.3,-1.519 0.71,0.556 0.86,1.428 1.08,2.24 0.45,-0.683 0.54,-1.509 0.14,-2.24 0.42,0.839 0.97,0.903 1.44,0.07 0.25,1.084 1.92,2.325 2.52,3.32 0.45,-0.585 1.85,-0.647 1.44,-1.66 0.92,0.638 1.3,3.418 2.38,3.409 0.96,0 2.27,-0.125 2.16,0.98 1.08,0.04 1.85,-1.3 2.95,-0.93 -1.86,1.394 2.33,1.084 1.73,3.02 0.71,-1.302 0.87,-0.366 1.86,-0.181 1.11,0.209 1.72,-0.669 2.75,-0.829 0.26,2.291 2.46,1.969 3.96,2.45 -1.14,-1.812 3.84,-0.928 2.23,-2.45 0.93,-0.233 2.38,-0.473 2.38,-1.72 0.66,0.922 -0.62,1.542 -1.23,1.939 1.37,0 0.31,0.456 -0.19,1.026 -0.48,0.546 -0.65,1.121 -0.24,1.784 0.5,-0.702 1.14,-1.509 2.09,-1.521 -0.96,1.015 0.23,0.441 0.19,1.601 0,0.36 0.1,0.905 0.48,1.025 0.91,0.254 1.82,-1.027 2.13,-1.686 -2.59,-0.04 1.55,-2.616 2.02,-3.09 -1.25,0.656 -0.25,2.969 0.79,3.31 -0.65,-1.179 0.77,-0.982 1.13,-0.482 0.31,0.423 0,1.083 -0.16,1.486 -0.67,1.414 -2.01,3.38 -3.49,3.966 0.47,0.43 0.83,0.933 1.08,1.511 -0.25,-0.185 -0.52,-0.355 -0.79,-0.511 -0.25,1.119 -0.33,2.138 -1.51,2.67 0,-0.481 0,-0.961 0.1,-1.439 -0.54,0.331 -1.02,0.738 -1.44,1.22 -0.1,-1.729 -1.15,-0.05 -1.15,0.58 -0.21,-1.559 -1.83,0.316 -0.86,1.22 -2.15,-0.411 -0.61,3.707 0.57,1.73 -1.07,2.23 -2.11,4.229 -3.54,6.243 -0.61,0.858 -1.22,1.752 -1.99,2.472 -0.89,0.827 -1.38,0.512 -0.64,1.963 1,1.97 3.3,2.656 4.6,4.358 0.76,0.996 1.25,1.918 2.34,2.603 0.76,0.48 1.5,1.085 1.17,2.092 0.83,-0.317 1.67,0.356 2.24,-0.58 0.79,1.235 2.16,1.838 3.39,2.517 1.58,0.87 2.3,2.093 3.39,3.465 1.87,2.369 4.59,1.526 6.89,3.18 1.23,0.882 0.3,2.687 1.41,3.583 0.61,0.491 1.43,0.451 2,1.038 0.6,0.614 1.33,1.016 2.03,1.512 2.13,1.514 6.77,0.06 8.02,-2.226 1.81,-3.278 4.14,-6.526 5.47,-10.053 0.77,-2.026 1.34,-4.117 2.09,-6.147 0.8,-2.159 1.73,-3.796 1.58,-6.173 -0.12,-1.859 0,-2.976 0.66,-4.662 0.68,-1.707 -0.88,-3.212 0,-5.083 0.72,-1.517 2.2,-2.728 1.74,-4.524 -0.53,-2.06 1.23,-2.159 1.63,-3.856 0.44,0.41 0.66,0.913 0.65,1.511 0,-0.577 0.35,-1.014 0.86,-1.221 -0.29,-0.04 -1.8,-1.679 -1.95,-2.02 -0.24,0.21 -0.48,0.426 -0.71,0.649 -0.16,-0.819 0.4,-1.926 0.95,-2.498 0.2,-0.247 0.46,-0.375 0.77,-0.382 -0.4,-0.793 0.1,-1.569 0.58,-2.16 0.16,0.56 0.57,0.845 1.15,0.721 -0.1,-3.025 1.73,-5.297 2.09,-8.21 0.12,-0.944 0.12,-1.567 1.15,-1.984 0.97,-0.392 1.43,-2.107 2.66,-1.256 -0.36,0.474 -0.67,0.977 -0.93,1.51 0.25,-0.161 0.52,-0.305 0.79,-0.43 0.3,0.915 1.21,1.352 1.04,2.385 -0.1,0.423 0,0.835 0.13,1.237 0.29,0.939 -0.16,0.934 -0.16,1.772 0,0.89 -0.18,1.806 0,2.691 0.2,1.148 1.98,1.019 2.77,1.424 -1.44,1.062 -1.9,2.174 -0.77,3.427 1.2,1.333 1,2.454 0.62,4.133 1.6,-0.314 0.81,6.454 0.47,7.263 -0.42,0.983 0.17,1.731 0.48,2.645 0.35,1.069 -0.2,2.209 0.28,3.263 0.86,1.867 3.21,0.695 3.45,-0.939 1.46,1.817 2.15,-2.344 2.82,1.577 0.15,0.905 1.99,1.993 2.6,2.846 0.1,0.108 2.17,1.467 2.36,1.487 -0.46,0.744 -1.84,2.199 -0.36,2.729 -1.98,2.401 0.42,5.023 -0.51,7.625 -0.57,1.61 -0.9,2.432 -0.1,3.905 0.43,0.743 1.69,2.157 1.14,3.09 0.44,-0.373 0.95,-0.589 1.52,-0.649 -0.38,1.52 -0.63,2.132 -0.22,3.717 0.3,1.182 0.28,2.425 0.1,3.627 -0.19,1.332 -0.89,2.194 -1.42,3.381 -0.63,1.436 0.99,1.756 0.89,2.905 -0.1,0.906 1.18,0.218 0.78,1.371 -0.34,1.003 -1.42,1.8 -0.8,2.946 0.37,0.673 1.58,2.109 2.46,2.028 0.82,-0.08 1.53,1.951 2.38,0.334 -0.1,1.889 2.99,2.191 2.67,0.93 0.49,1.064 0.19,3.982 1.58,4.4 0,-0.565 0.37,-0.906 0.93,-0.939 -0.43,1.491 1.23,1.602 2.27,1.986 0.85,0.315 -0.16,2.175 1.51,1.671 0.37,-0.11 0.1,-0.741 0.43,-0.883 0.73,-0.299 0.64,0.848 0.72,1.154 0.16,0.657 0.91,0.289 1.21,0.886 0.34,0.679 0.3,1.483 0.63,2.166 -0.37,-0.75 -1.38,-0.881 -1.74,-0.04 -0.47,1.064 0.94,2.213 0.23,3.211 3.9,-1.4 1.06,5.593 3.74,5.54 -0.92,1.069 -0.88,2.794 -0.75,4.11 0.1,1.105 1.18,3.026 0.32,4.03 1.41,-0.577 1.6,-0.152 2.24,1.087 0.65,-1.284 -0.13,-2.704 0.86,-3.897 1.18,1.053 1.76,2.647 3.17,3.46 0.21,-0.401 0,-1.196 0.36,-1.51 0.63,-0.595 1.11,-0.138 1.17,0.564 0.16,1.873 0,3.033 -0.64,4.783 -0.36,1.04 -0.1,2.1 -0.42,3.18 -0.68,2.16 0.81,0.78 1.47,2.12 -0.19,-0.52 -0.12,-1 0.22,-1.43 1.6,0.51 1.49,4.34 -0.1,1.73 0.18,1.14 3.46,4.95 3.46,2.94 1.64,1.33 1.24,3.26 2.09,4.97 0.4,0.82 1.28,0.99 1.8,1.66 0.62,0.8 0.2,1.77 0.34,2.68 0.31,1.99 2.28,1.23 2.04,3.16 -0.1,0.72 -0.79,1.23 -0.94,1.94 -0.2,0.97 0.74,1.53 0.29,2.67 0.23,-0.26 0.46,-0.5 0.72,-0.72 1.09,0.89 -0.64,2.11 -0.94,2.95 -0.54,1.48 -1.01,3.29 -1.27,4.85 -0.19,1.19 0.12,2.25 -0.89,3.04 -1.1,0.87 -1.01,1.7 -0.24,2.77 0.52,0.73 0.4,2.76 0.22,3.63 -0.12,0.58 -0.37,1.19 -0.34,1.79 0,0.66 0.52,1.06 0.36,1.77 -0.78,3.45 -2.4,5.66 -4.38,8.51 -2.13,3.06 -3.31,6.58 -5.66,9.56 -1.99,2.51 -2.13,5.51 -4.07,8.01 -0.94,1.21 -1.74,2.56 -2.74,3.73 -0.99,1.14 -2.55,1.76 -3.33,3.08 -0.5,0.85 -0.74,2.43 -1.42,3.12 -0.4,0.41 -1.09,0.37 -1.56,0.7 -0.84,0.6 -1.68,1.5 -2.76,1.67 1.86,0.17 -1.15,0.89 -1.63,1.04 -1.28,0.4 -2.44,1.57 -3.26,2.59 -0.58,0.72 -1.56,1.01 -2.17,1.72 -0.83,0.98 -0.64,2.04 -2.37,1.85 -0.12,0.64 0,0.86 0.5,0.65 -0.54,0.77 -0.95,1.65 -1.49,2.41 -0.43,0.61 -1.06,0.4 -1.49,1.12 -0.89,1.47 -2.61,1.94 -3.39,3.51 -0.4,0.79 -0.27,0.54 -0.91,0.67 0,0 -0.43,1.4 -0.64,1.63 -0.36,0.4 -2.49,2.28 -1.29,2.75 -0.35,0.57 -0.82,1.22 -0.94,0 -0.5,0.45 -0.29,1.41 -1.06,1.53 -0.97,0.14 -1.45,0.42 -2.12,1.17 -1.67,1.9 -3.49,3.72 -5.03,5.73 -1.31,1.71 -2.23,3.78 -3.56,5.51 -0.75,0.98 -2.25,3.66 -3.35,4.14 1.04,0.23 0.1,1.81 -0.2,2.25 -0.27,0.42 -0.57,0.83 -0.93,1.16 -0.56,0.52 -1.16,0.1 -1.7,0.36 -1.68,0.87 -2.51,1.95 -4.63,2.2 -2.25,0.27 -4.52,0 -6.77,0.27 -4.55,0.43 -8.36,3.2 -12,5.72 -1.67,1.15 -3.41,1.72 -5.44,1.89 -1.98,0.17 -1.45,-0.22 -1.81,1.7 0.44,-0.38 0.95,-0.64 1.51,-0.79 -0.25,0.97 -1.14,2.3 -2.08,2.73 -0.1,-0.64 0.2,-1.67 -0.24,-2.22 -0.69,-0.84 -1.11,0.1 -1.93,0.14 0.2,-0.74 0.13,-1.5 0.22,-2.24 -0.93,0.2 -1.58,0.71 -1.75,-0.51 -0.18,-1.32 0.98,-1.35 1.41,-2.43 0.61,-1.56 -2.93,0.7 -3.11,0.86 -1.46,1.23 -2.03,0.75 -2.81,-0.65 0.97,1.08 2.19,-0.14 2.95,-0.79 1.25,-1.07 0.66,-1.76 0.72,-3.17 -1.89,0.32 -3.56,1.64 -5.18,2.59 0.73,0.23 1.49,-0.16 2.16,0.36 -0.66,0.93 -2.02,0.67 -2.96,1.01 -1.35,0.49 -2.9,1.29 -4.03,2.18 -1.13,0.9 -2.33,1.37 -3.6,2.01 -1.06,0.53 -1.27,-0.35 -2.38,-0.92 -1.91,-0.97 -3.12,-3.05 -5.38,-2.73 -1.26,0.17 -1.82,-1.27 -3.11,-1.02 -0.72,0.14 -0.89,0.66 -1.49,0.94 -0.45,0.21 -1.05,-0.1 -1.53,0 1.94,-2.23 -3.78,-2.79 -4.47,-3.76 -0.68,-0.98 -1.03,-2.27 -1.04,-3.45 0,-0.75 -1.13,-1.22 -0.94,-2.55 0.33,-2.35 2.49,-3.45 2.99,-5.57 0.8,-3.4 -0.42,-6.29 -2.52,-8.93 1.8,1.21 2.74,3.42 2.88,5.54 0.32,-1.43 -0.14,-2.65 -0.96,-3.81 -0.55,-0.78 -1.62,-2.3 0.17,-2.16 0,0.5 -0.1,1 -0.15,1.51 0.88,-0.16 0.74,-0.66 0.81,-1.35 0.1,-0.83 1.47,-0.63 1.06,-1.46 -0.46,-0.95 -3.53,0.16 -2.8,1.3 -0.36,-0.11 -2.78,-0.39 -0.72,0.28 -1.72,-0.18 -4.93,2.13 -6.41,0.58 0.74,-1.03 2.09,-1.58 3.14,-2.21 0.94,-0.56 1.52,-1.77 1.99,-2.72 1.26,-2.5 1.09,-5.24 0.48,-7.97 -0.65,0.4 -0.68,1.13 -1.18,1.63 -0.57,0.57 -1.21,1.05 -1.69,1.7 -0.97,1.33 -1.83,2.8 -2.69,4.2 -0.94,1.54 -1.16,1.26 -2.79,1.1 -1.55,-0.15 -3.18,1.45 -4.89,1.39 0.27,-0.95 1.29,-2.03 2.01,-2.66 1.22,-1.07 2.8,0.32 3.99,-0.8 2.07,-1.95 1.94,-5.41 3.87,-7.57 1.07,-1.2 1.71,-2.02 3.12,-2.83 1.66,-0.95 1.04,-2.1 1.56,-3.61 0.29,-0.85 1.23,-0.99 1.88,-1.46 0.2,-0.15 0,-1.29 0,-1.48 0,-0.5 0.8,-2.83 0,-3.18 -0.32,-0.14 -0.76,2.22 -0.88,2.45 -0.62,1.22 -2.5,2.01 -3.45,3.05 -0.93,1.02 -1.75,2.13 -2.72,3.11 -0.42,0.42 -0.84,1.11 -1.44,1.3 -0.52,0.16 -1.01,-0.3 -1.51,-0.14 -0.93,0.29 -1.97,1.47 -3.03,1.86 -1.56,0.57 -2.73,1.81 -3.85,2.97 -0.41,0.43 -1.94,2.47 -2.48,2.36 -1.53,-0.32 -1.8,1.92 -2.67,2.6 0.5,-0.21 1.01,-0.41 1.52,-0.58 -0.62,0.64 -0.71,1.61 -1.37,2.23 -0.48,-1.48 -1.84,-0.51 -2.42,-1.69 -0.42,-0.83 -0.87,-2.68 -2.19,-1.91 0.33,-0.56 0.78,-1.05 1.3,-1.44 -0.18,0.95 1.02,1.74 1.21,0.45 0.21,-1.47 0.59,-2.95 0.59,-4.45 0,-1.41 -1.92,-2.3 -1.31,-3.77 0.24,-0.58 0.63,-1.19 0.31,-1.82 -0.26,-0.5 -0.57,-0.79 -0.16,-1.35 -0.69,0.57 -1.2,-0.13 -1.96,0.1 -1.1,0.29 -0.63,-0.48 -0.84,-0.94 -0.11,-0.24 -0.66,-1.49 -0.5,-1.7 0.22,-0.28 1.65,-2.39 1.22,-0.6 0.68,-0.5 1.38,-1.59 0.8,-2.42 -0.67,-0.97 -1.77,-0.14 -2.6,0 0.16,-0.49 0.91,-1.15 0.86,-1.68 -0.1,-0.69 -0.8,-1.05 -0.87,-1.77 0,-0.37 -2.38,0.66 -2.47,0.65 -1.48,-0.17 -2.62,-1.45 -3.94,-2.04 -1.47,-0.65 -1.57,0.94 -2.7,0.74 -2.87,-0.51 -4.04,-4.47 -7.07,-4.8 -1.02,-0.11 -1.8,0.48 -2.7,0.81 -1.1,0.39 -2.34,-0.1 -3.47,-0.1 -2.83,0 -6.17,0.11 -8.94,0.71 -5.13,1.12 -9.67,4.07 -14.89,5.12 -2.51,0.5 -4.77,0.41 -7.29,0.18 -3.08,-0.28 -4.71,1.01 -7.32,2.34 -2.14,1.08 -4.62,2.52 -6.94,3.14 -2.48,0.67 -4.13,0.82 -5.73,3.04 -1.22,1.7 -2.43,3.32 -4.11,4.61 -0.31,0.23 -1.65,1.4 -2.05,1.21 -1.11,-0.54 -1.69,0.53 -2.82,0.73 0.69,-1.78 -4.72,-1.11 -5.5,-0.8 -1.3,0.51 -1.52,1.33 -2.07,-0.46 0,0 -3.62,-0.27 -4.08,-0.33 -1.97,-0.24 -4.31,0.34 -6.26,0.71 -1.46,0.27 -2.73,0.14 -4.17,0.37 -1.84,0.29 -5.99,1.18 -5.49,3.83 -0.42,-0.22 -1.72,0.57 -2.19,0.85 -0.67,0.4 -1.34,-0.5 -2.08,-0.39 -0.74,0.11 -1.27,0.76 -1.8,1.23 -0.56,0.51 -1.07,0.68 -1.79,0.95 -1.05,0.39 -1.25,0.99 -2.06,1.62 -1.08,0.84 -2.67,1.25 -4.05,1.21 1.77,0.77 -1.99,0.42 -2.67,0.35 -2.41,-0.24 -4.78,-0.1 -7.19,-0.57 0.1,-0.25 0.19,-0.48 0.28,-0.72 -2.09,0.35 -3.06,-1.44 -3.93,-2.85 -0.71,-1.16 -2.6,-3.51 -4.06,-1.98 -1.26,-1.34 0.35,-7.62 2.81,-6.12" />
    <path id="path3350" d="m 2277.85,860.97 c -0.1,-0.237 -0.2,-0.473 -0.29,-0.71 0.84,0.08 0.88,0.17 0.29,0.71" />
    <path id="path3956" d="m 2351.86,852.77 c 0.65,-0.345 0.83,-0.93 0.22,-1.439 -0.59,0.353 -0.75,0.933 -0.22,1.439" />
    <path id="path3958" d="m 2352.08,847.73 c 0.28,-0.22 0.45,-0.51 0.5,-0.87 -0.8,-0.08 -0.97,0.207 -0.5,0.87" />
    <path id="path3960" d="m 2353.09,848.38 c 0.21,-0.33 0.3,-0.69 0.28,-1.08 -0.75,0.147 -0.82,0.558 -0.28,1.08" />
  </g><g id="nz" class="landxx coastxx nz geo-shape country region-1" data-name="New Zealand">
    <title id="title516">New Zealand</title>
    <path id="path3560" d="m 2379.51,1195.27 c -0.5,-0.84 -4.19,1.38 -4.03,2.3 0.53,-0.25 1.44,0.14 1.77,-0.3 0.7,-0.95 1.18,-1.41 2.26,-2" />
    <path id="path3564" d="m 2416.52,1164.31 c 1.88,0.95 1.14,-3.44 -0.73,-1.2 -1.34,1.61 -2.42,3.05 -4.53,3.79 0.66,0.46 2.97,-0.37 3.75,-0.58 0.57,-0.15 1.61,0 2,-0.53 0.64,-0.92 -0.57,-1.26 -1.21,-0.9 0.24,-0.19 0.48,-0.38 0.72,-0.58" />
    <path id="path3566" d="m 2412.27,1156.75 c 0.82,-0.21 1.59,-0.58 2.31,-1.01 -0.11,0.95 -1.28,0.76 -1.59,1.59 0.87,0 1.34,-0.94 2.23,-0.87 -0.94,0.27 -2.44,0.99 -2.73,2.02 1.21,0.12 3.15,1.01 4.25,0.21 1.28,-0.93 2.72,-0.31 1.79,1.37 0.72,0 1.49,-0.52 2.21,-0.3 1.15,0.35 -0.1,1.41 0,2.1 0.59,-0.31 2.16,-0.39 2.82,-0.29 0.54,0.1 0.12,0.86 0.99,0.87 2.47,0 4.67,-1.12 6.99,-1.74 0.44,-0.12 1.21,-1.05 1.7,-1.29 1.08,-0.52 2.32,-0.75 3.33,-1.44 0.92,-0.63 1.62,-1.48 2.75,-1.77 1.01,-0.26 2.29,-0.1 2.94,-1.1 -0.5,0.19 -1,0.36 -1.51,0.5 2.75,-1.25 4.68,-3.86 7.05,-5.66 1.11,-0.84 2.41,-1.4 3.47,-2.31 1.21,-1.04 1.99,-2.47 3.16,-3.54 2.14,-1.99 4.88,-2.84 7.52,-3.93 1.34,-0.55 2.95,-0.83 4.2,-1.5 0.85,-0.45 2.22,-1.94 3.11,-0.77 -0.5,0.21 -1,0.4 -1.51,0.57 1.22,-0.53 2.66,0.57 3.74,0.15 2.42,-0.91 0.66,-1.71 -0.64,-2.23 1.24,-0.3 1.46,-2.16 2.36,-2.9 1.56,-1.28 3.78,-1.88 5.55,-2.84 1.58,-0.86 2.76,-2.08 4.13,-3.21 1.17,-0.96 2.52,-1.42 3.84,-2.12 1.01,-0.54 1.59,-1 2.26,-1.87 0.86,-1.13 2.41,-1.45 3.53,-2.26 1.29,-0.93 0.77,-2.82 1.88,-3.84 1.15,-1.05 3.08,-1.01 3.95,-2.42 -0.47,0.57 -3.14,1.98 -3.74,1.08 1.06,-0.2 3.33,-0.56 3.17,-2.09 -1.16,0 -1.14,0.81 -1.99,1.06 -0.49,0.14 -1.95,1.03 -0.25,0.67 -0.77,0.1 -1.48,0.44 -2.23,0.58 0.66,-0.39 2.99,-1.9 1.37,-1.95 0.64,-0.14 1.21,-0.53 1.65,-1.01 -1.43,0.25 -2.6,1.15 -3.96,1.59 -1.29,0.42 -2.55,1.98 -4.03,1.44 0.56,-1.13 2.5,-2.8 2.23,-4.18 -0.38,0.2 -2.15,0.46 -1.81,-0.47 0.47,-1.34 2.15,-1.91 3.4,-1.62 -1.88,-0.95 -6.08,1.33 -7.56,2.6 -0.92,0.8 -1.6,1.82 -2.34,2.77 -1.02,1.31 -2.32,2.14 -3.61,3.15 -1.31,1.03 -2.53,1.29 -4.08,1.76 -1.44,0.43 -2.4,1.74 -3.36,2.81 -2.31,2.52 -4.83,4.67 -7.77,6.42 -1.28,0.77 -2.55,1.27 -3.97,1.7 -1.58,0.47 -2.93,1.51 -4.42,2.21 -3.2,1.52 -6.28,2.92 -9.58,4.24 -3.11,1.26 -6.43,1.94 -9.4,3.52 -1.22,0.65 -5.88,2.47 -5.25,4.32 -0.48,-1.74 -2.69,0.65 -3.48,0.93 -0.84,0.31 -3.68,1.32 -3.22,2.24 -0.72,-0.27 -1.62,0.21 -2.2,0.6 -0.62,0.41 -1.78,1.2 -0.39,1.2 -1.15,0 -0.84,1.34 -1.59,1.87 0.7,-0.75 0.58,-0.95 -0.36,-0.58 0.1,-0.41 -0.22,-1.44 -0.58,-0.65 -0.36,0.78 -1.57,1.28 -2.37,1.81 0.81,0.21 1.53,-0.25 2.31,-0.37 -0.76,0.32 -1.56,0.55 -2.31,0.87 0.5,0.16 1,0.16 1.51,0 -0.51,0.24 -1.03,0.4 -1.58,0.5 2.05,0.37 -1.39,0.93 -1.9,1.02 -1.06,0.19 -2.22,0.55 -2.35,1.79" />
    <path id="path3568" d="m 2497.81,1111.32 c -0.82,0.4 -1.85,0.77 -2.02,1.8 0.94,-0.19 1.59,-0.99 2.02,-1.8" />
    <path id="path3570" d="m 2500.18,1116.29 c -0.1,0.51 -0.18,1.01 -0.28,1.51 0.6,-0.34 1.32,-0.26 1.94,-0.58 0.14,0.61 0,1.12 -0.51,1.52 1.35,1.13 4.12,-0.96 5.26,-1.62 2.54,-1.5 4.66,-3.1 6.98,-4.94 1,-0.79 2.19,-1.94 3.45,-2.28 1.06,-0.28 1.54,-1.41 2.38,-2.01 1.04,-0.75 2.16,-1.13 3.14,-2.04 1.18,-1.11 2.19,-2.39 3.42,-3.46 -2.16,-0.42 1.72,-3.4 2.3,-3.79 1.33,-0.88 6.59,-2.71 5.62,0.41 1.77,-1.11 1.76,-3.65 3.7,-4.72 0.69,-0.38 1.49,-0.5 2.2,-0.86 1.24,-0.62 1.8,-1.61 2.65,-2.64 1.28,-1.55 2.38,-3.45 3.96,-4.64 0.81,-0.61 0.68,-1.28 -0.2,-1.76 -1.17,-0.62 -2.91,0.52 -3.9,1.07 -2.47,1.35 -4.74,3.57 -7.72,2.28 -0.73,-0.31 -4.77,-2.27 -4.87,-3.05 -0.1,-0.57 3.38,-6.9 1.73,-6.49 0.48,-0.45 1.05,-0.81 1.66,-1.08 -0.57,0 -1.12,0.12 -1.66,0.29 0.17,-0.77 0.34,-1.59 -0.14,-2.31 -0.7,0.28 -0.59,0.43 -0.42,0.97 0.22,0.65 -0.77,1.41 -1.02,1.91 -0.59,1.17 -0.56,3.2 -2.22,3.46 -0.85,0.13 -0.1,-1.66 -0.1,-2.02 0.1,-1.04 -2.81,-1.2 -3.49,-1.08 0,-0.1 1.11,-0.78 1.39,-1.28 0.43,-0.78 0.65,-1.35 1.18,-2.09 0.39,-0.54 1.63,-0.84 1.26,-1.66 -0.4,-0.86 -1.06,-2.57 -0.23,-3.39 -0.47,0 -0.88,-0.17 -0.69,-0.66 0.3,-0.77 1.29,0.14 1.7,0.44 0.64,-1.7 0.97,-3.49 0.93,-5.32 -0.48,0.12 -0.96,0.17 -1.44,0.14 0.12,0.26 0.24,0.53 0.36,0.79 -0.26,0.1 -0.52,0.1 -0.79,0.1 0.14,-0.59 -0.15,-1.73 0.86,-1.58 -0.98,-0.13 -1.15,-2.43 -2.23,-0.86 0.73,-1.13 -3.18,-1.4 -1.01,-1.8 -0.99,-0.38 -1.34,0.88 -2.01,1.29 0.66,-0.89 0.27,-3.52 -0.15,-4.46 0.58,0.1 1.02,-0.27 1.23,-0.79 -0.55,0.16 -2.8,0.12 -2.81,0.7 0,0.7 0.38,1.36 0.53,2.03 0.24,1.13 0.78,4.08 -1.18,3.96 0.26,0.96 0.29,1.97 0.36,2.95 0.53,-1.02 2.25,-0.81 2.45,-2.08 0.1,1.57 -2.21,1.13 -2.35,2.82 -0.19,2.29 1.13,4.35 0.55,6.75 1.44,0.27 1.06,-1.48 0.86,-2.3 0.56,0.15 0.98,0.6 1.15,1.15 -0.1,-1.52 0.82,0 1.59,-0.86 -0.68,0.29 -1.28,0.64 0,0.93 -0.41,0.28 -0.91,0.21 -1.32,0.45 -0.42,0.25 -0.43,1.23 0.6,0.49 -0.61,0.65 -0.68,1.59 -1.3,2.23 -0.36,-0.44 -0.5,-0.94 -0.43,-1.51 -1.25,0.31 -0.85,3.8 -1.23,4.75 0.74,0.11 2.06,-1.06 2.45,0 0.27,0.75 -1.5,1.69 -1.73,0.43 -0.56,0.34 -1.61,2.32 -0.35,2.45 -0.77,0.25 -1.09,1.14 -1.29,1.84 -0.11,0.41 -0.22,0.82 -0.32,1.24 -0.24,0.84 -0.8,0.79 -1.19,1.46 -0.35,0.59 -0.45,1.66 -0.87,2.16 -0.27,0 -0.54,0 -0.8,0 -0.55,0.48 -1.04,1.02 -1.52,1.57 -1.45,1.68 -2.43,3.97 -4.31,5.22 -1.81,1.21 -4.33,0.96 -6.27,2.13 -0.84,0.5 -1.55,1.25 -1.65,2.26 -0.11,1.15 1.28,1.21 1.9,1.81 0.93,0.9 1.03,1.67 2.4,2.14 1.34,0.46 1.57,1.7 1.1,2.93 -0.94,2.5 -3.36,4.15 -5.41,5.69 -0.83,0.62 -1.51,1.76 -2.55,2.07 -1.01,0.31 -2.24,0.94 -2.78,1.9 0.65,0.29 1.2,0 1.45,-0.65" />
    <path id="path3572" d="m 2528.26,1077.41 c -0.45,0.12 -0.88,0.28 -1.29,0.5 0.57,0.36 1.09,0.13 1.29,-0.5" />
    <path id="path3574" d="m 2533.37,1071.43 c -0.96,0.47 -1.28,2.76 -0.64,2.42 0.62,-0.33 0.43,-1.84 0.64,-2.42" />
    <path id="path3576" d="m 2541.37,1139.83 c 0,0.34 0,0.68 0,1.01 0.72,-0.29 1.43,-0.64 2.23,-0.65 -0.7,-0.73 -0.18,-3.02 1.01,-1.87 -0.22,0.27 -0.46,0.51 -0.72,0.72 0.68,-0.58 1.42,-1.11 2.23,-1.51 -1.31,0.32 -3.69,-0.85 -4.39,0.86 0.51,-0.17 1.01,-0.15 1.51,0.1 -0.3,0.79 -1.08,1.22 -1.87,1.37" />
    <path id="path3578" d="m 2542.23,1142.42 c 0.46,-0.14 0.68,-0.15 0.79,-0.72 -0.27,0.23 -0.54,0.47 -0.79,0.72" />
  </g><g id="pg" class="landxx coastxx pg geo-shape country region-2" data-name="Papua New Guinea">
    <title id="title622">Papua New Guinea</title>
    <path id="path3962" d="m 2364.61,835.13 c 0.35,-1.458 -1.97,-2.07 -2.95,-2.38 1.06,0.65 2.13,1.438 2.95,2.38" />
    <path id="path3964" d="m 2364.32,833.04 c 0.96,-0.984 -0.93,-1.15 -1.51,-0.58 0.47,0.279 0.97,0.472 1.51,0.58" />
    <path id="path3966" d="m 2365.25,832.61 c 0.11,-0.581 -0.27,-0.775 -0.79,-0.72 0.25,0.256 0.51,0.496 0.79,0.72" />
    <path id="path3968" d="m 2365.76,829.66 c 0.12,-0.507 -0.12,-0.581 -0.72,-0.221 0.24,0.07 0.48,0.148 0.72,0.221" />
    <path id="path3970" d="m 2367.99,827.28 c -0.1,-0.41 -0.3,-0.649 -0.72,-0.72 0.24,0.24 0.48,0.48 0.72,0.72" />
    <path id="path3954" class="landxx pg" d="m 2344.30,838.58 1.44,-18.28 c -0.11,-1.25 -1.22,-1.875 -0.94,-3.244 0.24,-1.149 0.88,-2.537 1.31,-3.507 l 1.7,-31.475 c 1.1,0.448 3.43,1.184 4.49,1.724 2.95,1.505 5.64,3.639 8.89,4.493 1.6,0.421 3.26,0.187 4.8,0.853 1.78,0.769 2.93,2.245 4.53,3.24 1.27,0.787 1.5,-0.106 2.5,0.08 1.26,0.24 1.3,1.632 2.49,1.906 1.39,0.318 1.65,1.822 2.51,2.671 0.89,0.879 2.19,0.594 3.17,1.542 1.07,1.034 1.92,2.412 2.17,3.89 0.23,1.29 -0.81,2.336 -0.65,3.417 0.22,1.581 4.06,1.895 5.21,2.321 1.17,0.43 2.52,1.314 3.61,1.925 0.53,0.297 0.74,0.851 1.37,1.01 0.73,0.186 1.43,-0.218 2.16,0 1.77,0.528 4.47,4.458 2.96,6.212 -1.19,1.386 -4.2,0.222 -5.74,0.303 -2.43,0.128 -0.1,5.114 0.64,6.206 0.86,1.28 2.25,2.186 3.17,3.466 0.59,0.813 2.18,2.292 3.36,1.813 -0.1,1.188 0.11,3.169 0.47,4.306 0.19,0.606 0.58,0.836 1.08,1.133 0.7,0.42 0.44,1.429 0.57,2.111 0.38,2.05 2.04,1.718 3.55,1.128 1.07,-0.42 2.92,-0.542 2.17,1.12 -1.22,2.694 -0.14,3.519 2.6,3.657 0.52,0.03 2.55,-0.157 2.63,0.648 0.1,0.884 -1.97,0.99 -2.48,1.307 0.46,0.539 0.65,1.276 1.22,1.73 0.71,0.572 1.87,0.656 2.68,1.166 1.24,0.777 3.1,1.193 4.52,0.704 -0.72,0.317 -1.7,1.042 -2.53,0.893 -0.66,-0.117 -1.37,-0.531 -1.5,0.477 1.58,0.41 3.36,1.2 1,1.931 -1.58,0.485 -3.74,1.072 -4.6,-1 0.53,0.146 0.98,0.03 1.37,-0.36 -0.47,-0.263 -0.87,-0.189 -1.22,0.22 -0.1,-1.488 -2.34,-1.368 -3.37,-1.45 -1.79,-0.141 -3.58,-1.089 -5.42,-0.78 0.1,-0.265 0.14,-0.528 0.22,-0.79 -0.75,0.343 -1.58,0.568 -2.42,0.434 -0.59,-0.1 -1.75,-1.126 -2.3,-0.77 -1.36,0.886 -2.27,-0.92 -3.13,-0.104 -0.23,-0.922 -1.44,-1.286 -1.44,-2.3 0,-0.782 -0.58,-1.776 -1.04,-2.379 -0.51,-0.685 -1.5,-0.163 -2.03,-0.924 -0.42,-0.62 -1.43,-2.147 -0.75,-2.888 -2.45,-0.316 -2.07,-1.438 -2.72,-3.1 -0.61,-1.569 -1.97,-5.209 -3.62,-5.888 -0.54,-0.222 -0.97,-0.664 -1.41,-1.025 -0.6,-0.488 -1.53,0 -2.23,-0.1 -1.04,-0.134 -2.11,-0.841 -3.19,-1.051 -1.92,-0.374 -1.11,-0.73 -1.44,-2.09 0,1.195 -1.21,0.574 -1.52,-0.07 -0.14,1.496 -0.96,0.189 -0.86,-0.431 -0.36,0.653 -0.6,1.289 -0.94,0 0,0.696 0.1,1.39 0.15,2.08 -0.35,-0.479 -0.81,-0.812 -1.37,-1 -0.24,3.243 -4.09,-1.531 -4.53,-1.729 0.53,1.626 1.65,3.02 1.87,4.75 -0.29,-0.09 -0.58,-0.182 -0.87,-0.29 0.39,1.866 -2.62,-0.389 -3.53,-0.5 0.39,0.628 2.59,2.289 1.25,2.849 -0.89,0.372 -1.88,0.333 -2.81,0.498 -0.78,0.138 -1.51,0.489 -2.3,0.193 -0.62,-0.232 -1.12,-0.463 -1.8,-0.299 -1.05,0.256 -1.72,0.792 -2.18,-0.581 0,1.012 0.47,1.367 1.42,1.146 1.34,-0.308 2.29,0.05 3.44,0.783 2.21,1.401 3.93,4.04 0.92,5.324 -1.35,0.574 -2.8,2.121 -4.28,2.241 -1.4,0.114 -2.6,-1.182 -4.17,-1.04 -1.74,0.159 -3.59,0.6 -5.28,-0.168 -1.13,-0.517 -2.1,1.334 -3,-0.297" />
    <path id="path3972" d="m 2384.70,800.78 c 0.88,-0.362 1.03,-1.314 0.43,-2.01 -0.77,0.4 -1.35,1.379 -0.43,2.01" />
    <path id="path3974" d="m 2393.33,806.76 c 1.4,-0.08 0.74,-2.201 -0.35,-2.18 -0.8,0.02 0.1,1.927 0.35,2.18" />
    <path id="path3976" d="m 2399.67,810.22 c 1.09,-0.839 0.76,-3.036 -0.79,-3.03 -1.9,0 0.23,2.55 0.79,3.03" />
    <path id="path3978" d="m 2399.45,779.90 c 0.62,0.167 0.74,-0.07 0.37,-0.72 -0.13,0.24 -0.25,0.48 -0.37,0.72" />
    <path id="path3982" d="m 2406.37,811.08 c 0.47,0.623 1.28,0.89 1.58,1.66 0.93,-0.669 2.32,-0.958 3.19,0.01 0.64,0.697 0.59,1.429 1.78,1.313 1.54,-0.151 3.1,0.187 4.64,-0.117 2.02,-0.4 3.1,-2.333 4.83,-2.299 1.78,0.04 4.17,-2.462 3.92,-4.238 1,0.119 5.81,0.795 5.11,-1.689 -0.12,-0.426 -1.79,-3.363 -0.36,-3.066 2.36,0.489 2.96,-2.049 2.96,-3.846 0,-0.664 0.19,-1.423 -0.51,-1.744 -0.68,-0.308 -1.44,-0.624 -0.65,-1.395 -0.66,0.252 -2.13,1.853 -2.79,0.893 -0.71,-1.014 -2.56,-0.972 -2.38,0.567 0.17,1.465 0.97,2.709 0.74,4.27 -0.23,1.557 -2.43,0.735 -3.52,1.61 -1.17,0.948 -1.36,2.435 -2.27,3.563 -0.38,0.473 -1.11,0.441 -1.63,0.583 -1.2,0.324 -1,-0.16 -2.13,-0.36 -0.86,-0.152 -1.87,1.457 -2.55,0.532 -0.89,-1.23 -0.85,-3.193 0.62,-3.948 -1.25,-1.341 -2.33,2.39 -1.98,2.973 0.64,1.072 -4.46,1.59 -5,1.557 -0.71,-0.04 -1.07,-0.388 -1.71,-0.646 -0.84,-0.346 -1.2,0.149 -1.98,0.09 -0.68,-0.05 -2.42,0.307 -2.79,-0.249 -0.58,-0.895 -1.58,1.275 -0.66,2.224 0.65,0.668 1.33,0.471 2.1,0.806 0.57,0.249 0.77,0.843 1.44,0.941" />
    <path id="path3984" d="m 2412.20,800.42 c 0.15,-0.654 -0.1,-0.724 -0.72,-0.21 0.24,0.07 0.48,0.14 0.72,0.21" />
    <path id="path3986" d="m 2414.72,773.42 c 0.78,-0.726 -0.66,-2.431 -1.4,-1.776 -0.46,0.404 1.1,1.626 1.4,1.776" />
    <path id="path3988" d="m 2415.01,841.97 c 0.27,-0.53 0.34,-3.369 -0.96,-2.636 -1.56,0.88 0.21,2.157 0.96,2.636" />
    <path id="path3990" d="m 2418.75,843.62 c 1.53,-1.6 -0.63,-2.385 -1.83,-2.837 -2.15,-0.809 0,1.452 -1.19,2.188 0.85,-0.314 2.37,0.02 3.02,0.649" />
    <path id="path3992" d="m 2416.59,781.27 c 0.62,0.57 1.03,1.309 1.94,1.44 0.94,0.136 2.06,-0.453 1.35,-1.537 -0.6,-0.941 -3.13,-1.493 -3.29,0.1" />
    <path id="path3994" d="m 2418.10,851.76 c 1.17,-1.917 -2.11,-0.1 0,0" />
    <path id="path3996" d="m 2418.90,846.07 c 0.21,0 0.43,0 0.64,0 -0.93,0.61 0.65,1.153 1.07,1.303 1.05,0.372 1.48,-1.293 0.8,-1.873 -0.37,0.208 -0.61,0.519 -0.71,0.93 -1.22,-0.434 -1.68,-1.862 -2.74,-2.52 0.42,0.663 0.84,1.363 0.94,2.16" />
    <path id="path3998" d="m 2418.46,851.97 c 0.19,-0.337 0.48,-0.55 0.87,-0.64 -0.57,-0.201 -0.89,0.04 -0.87,0.64" />
    <path id="path4000" d="m 2421.70,835.99 c -0.47,-0.934 -0.19,-2.688 0.22,-3.601 -0.81,0.134 -1.44,1.29 -0.22,1.37 -0.3,0.763 -0.98,1.628 0,2.231" />
    <path id="path4002" d="m 2422.35,785.38 c 0.49,-0.09 0.97,-0.211 1.44,-0.37 -0.54,-0.316 -1.1,-0.12 -1.44,0.37" />
    <path id="path4004" d="m 2436.46,792.94 c -1.05,-0.148 -1.47,-1.913 -2.1,-2.591 -0.98,-1.057 -2.77,-2.703 -4.12,-3.244 -1.41,-0.57 -2.18,-2.086 -3.61,-2.66 -0.52,-0.209 -0.88,0.36 -1.1,-0.402 -0.22,-0.757 -1.76,-1.263 -2.32,-1.832 0.27,0.564 0,0.908 -0.57,0.93 0.7,0.616 1.72,0.546 2.42,1.178 0.86,0.777 1.71,1.559 2.62,2.282 0.99,0.791 1.92,1.815 3.05,2.409 0.85,0.443 1.84,0.563 2.6,1.18 1.47,1.201 1.98,3.246 2.79,4.877 0.57,1.129 0,2.307 0.13,3.483 0.1,1.144 0.9,1.963 1.37,2.95 0.89,-0.73 2.5,-4.147 2.04,-5.244 -0.37,-0.894 -1.2,-1.465 -1.59,-2.302 -0.49,-1.041 -0.61,-0.654 -1.61,-1.014" />
    <path id="path4006" d="m 2432.21,852.26 c 0.24,-0.19 0.48,-0.38 0.73,-0.57 -0.73,0 -1.45,-0.05 -2.16,-0.149 0.47,0.241 0.95,0.481 1.43,0.719" />
    <path id="path4012" d="m 2434.23,839.45 c 2.34,-0.09 -0.22,-3.523 -1.73,-1.8 0.79,0.413 0.89,1.437 1.73,1.8" />
    <path id="path4014" d="m 2435.17,857.23 c -0.11,-0.517 -0.1,-0.767 -0.72,-0.649 0.24,0.216 0.48,0.432 0.72,0.649" />
    <path id="path4016" d="m 2437.47,860.33 c 0.51,-0.136 0.97,-0.376 1.37,-0.721 -0.68,-0.625 -2.7,-2.011 -3.67,-1.439 0.49,0.402 0.47,1.101 0.93,1.51 0.59,0.527 0.99,-0.493 1.37,0.65" />
    <path id="path4018" d="m 2436.53,787.53 c 0.34,-0.577 0.1,-1.154 -0.43,-1.51 -0.22,0.602 -0.1,1.106 0.43,1.51" />
    <path id="path4020" d="m 2441.86,858.53 c 0.43,-0.311 0.91,-0.454 1.44,-0.43 -0.65,-0.953 -1.41,-0.05 -2.23,0 0.26,0.143 0.52,0.286 0.79,0.43" />
    <path id="path4024" d="m 2450.58,806.76 c 1.04,-0.895 1.1,-2.796 0,-3.67 -0.62,1.104 -0.39,2.534 0,3.67" />
    <path id="path4026" d="m 2452.95,813.38 c 0.55,0.507 1.34,0.721 1.45,1.535 0.15,1.014 0,2.048 0.76,2.848 1.14,1.167 5.18,1.502 4.75,-0.737 -0.18,-0.941 -0.44,-1.596 -1.04,-2.39 -0.36,-0.473 -0.75,-1.353 -1.33,-1.589 -0.53,-0.218 -1.04,-0.229 -1.31,-0.813 -1.1,-2.435 -2.55,-4.726 -5.22,-5.614 0.72,0.794 0.24,2.022 0.17,2.938 -0.1,1.517 1.08,2.604 1.77,3.822" />
    <path id="path4028" d="m 2458.21,821.23 c 0.24,-0.07 0.48,-0.146 0.72,-0.22 -0.15,-0.948 -1.23,-1.064 -1.44,-0.07 0.24,0.1 0.48,0.193 0.72,0.29" />
    <path id="path4030" d="m 2460.73,820.01 c 0.15,-0.48 0.15,-0.96 0,-1.44 0,0.48 0,0.96 0,1.44" />
    <path id="path4032" d="m 2390.45,778.90 c -0.97,-1.124 0.68,-2.128 1.61,-2.374 1.5,-0.397 3.2,0.43 4.66,0.715 -1.28,0.282 -1.37,1.289 -2.95,1.289 -0.64,0 -1.24,-0.582 -1.87,-0.5 -0.55,0.07 -0.97,0.649 -1.45,0.87" />
  </g><g id="fj" class="geo-shape country region-3" data-name="Fiji">
    <title id="title2436">Fiji</title>
    <g id="fj-" class="landxx coastxx fj">
      <path id="path5538" d="m 2608.11,908.14 c 0.24,-0.216 0.48,-0.433 0.72,-0.649 -0.58,0 -0.56,0.199 -0.72,0.649" />
      <path id="path5544" d="m 2610.49,905.33 c 0.54,-0.339 1.02,-0.749 1.44,-1.23 -0.55,0.329 -1.03,0.739 -1.44,1.23" />
      <path id="path5536" d="m 2608.54,916.63 c 1.5,0.628 2.85,1.304 4.5,0.74 1.09,-0.375 3.54,-0.768 4.38,-1.486 0.58,-0.498 0.26,-0.629 -0.13,-1.007 -0.19,-0.188 0,-1.335 0.1,-1.691 0.1,-0.928 -0.74,-3.116 -1.84,-2.456 1.35,-1.849 -4.23,-0.253 -4.75,-0.04 -1.61,0.648 -5.97,5.306 -2.24,5.945" />
      <path id="path5542" d="m 2610.70,925.34 c 0.48,-0.336 0.95,-0.693 1.4,-1.07 0.46,-0.369 1.16,0.217 1.7,-0.08 -0.35,-1.674 -3.5,0.108 -3.82,1.08 0.24,0.02 0.48,0.05 0.72,0.07" />
      <path id="path5546" d="m 2618.77,913.18 c 0.28,-0.167 0.55,-0.36 0.79,-0.58 -0.73,-0.56 -0.99,-0.367 -0.79,0.58" />
      <path id="path5548" d="m 2631.15,899.50 c -2.53,-0.134 -4.45,1.764 -6.81,2.121 -1.29,0.195 -2.18,0.967 -3.22,1.694 -0.83,0.585 -2.51,0.253 -2.35,1.725 1.04,-0.18 0.97,0.893 0.93,1.579 1.34,-0.173 4.6,-3.41 5.13,-1.834 0.28,0.841 2.31,-0.227 2.78,-0.363 1.68,-0.487 1.96,-0.658 2.53,-2.413 -0.94,0.419 -2.57,2.812 -3.74,1.95 1.75,-1.308 2.88,-3.288 4.75,-4.459" />
      <path id="path5550" d="m 2622.29,916.34 c 0.49,-0.57 0.38,-1.341 -0.43,-1.51 0.1,0.527 0.2,1.03 0.43,1.51" />
      <path id="path5552" d="m 2625.46,920.88 c 0.23,-0.222 0.45,-0.462 0.65,-0.72 -0.59,-0.143 -0.89,0.157 -0.65,0.72" />
    </g>
    <circle id="fj_" class="circlexx fj" r="6.01303" cy="901.031" cx="2610.05" />
  </g><g id="sb" class="landxx coastxx sb geo-shape country region-4" data-name="Solomon Islands">
    <title id="title931">Solomon Islands</title>
    <path id="path4726" d="m 2464.76,828.36 c 0,-0.537 1.07,-1.375 0.7,-1.862 -0.18,-0.226 -0.92,-1.389 -1.21,-1.378 -1.66,0.06 -0.22,2.786 0.51,3.24" />
    <path id="path4728" d="m 2463.75,830.59 c 0.2,-0.754 0.29,-1.601 -0.29,-2.23 0,0.756 -0.1,1.529 0.29,2.23" />
    <path id="path4730" d="m 2466.41,821.16 c 0.88,1.428 3.14,3.149 4.9,2.3 -0.55,-0.64 -1.39,-0.865 -1.92,-1.515 -0.69,-0.835 -0.66,-1.986 -1.45,-2.769 -1.07,-1.059 -2.57,-1.891 -3.97,-2.406 -0.84,1.507 1.87,3.231 2.44,4.39" />
    <path id="path4732" d="m 2468.00,830.09 c 0.55,-0.519 0.75,-2.455 -0.32,-2.539 -1.75,-0.135 -1.06,2.464 0.32,2.539" />
    <path id="path4734" d="m 2469.29,835.13 c -0.75,-1.007 0.73,-1.743 0.15,-2.74 -1.41,0.999 -1.07,1.517 -0.15,2.74" />
    <path id="path4736" d="m 2472.53,833.76 c 0.86,0.306 0.99,-0.519 0.86,-1.15 -0.24,-1.21 -1.24,-1.582 -1.86,-2.52 -0.34,-0.513 -0.22,-2.219 -1.39,-1.234 -0.61,0.516 -1.87,1.709 -1.71,2.604 0.95,0.25 1.93,-0.769 2.66,0.225 0.11,0.253 0.1,0.502 0,0.747 -0.1,0.535 1.12,1.136 1.46,1.328" />
    <path id="path4738" d="m 2471.02,835.70 c 0.17,-0.709 -0.1,-0.802 -0.72,-0.279 0.24,0.09 0.48,0.186 0.72,0.279" />
    <path id="path4740" d="m 2471.82,824.11 c 0.18,-0.697 -0.1,-0.816 -0.73,-0.359 0.24,0.119 0.49,0.239 0.73,0.359" />
    <path id="path4742" d="m 2472.82,824.26 c 0.73,0.14 0.73,-0.104 0,-0.73 0,0.243 0,0.486 0,0.73" />
    <path id="path4744" d="m 2473.90,835.49 c 1.26,-0.375 0.48,-1.248 0.72,-2.16 -1.41,-0.293 -1.85,1.483 -0.72,2.16" />
    <path id="path4748" d="m 2478.08,824.97 c -0.33,-0.288 -0.1,-0.542 -0.72,-0.351 0.24,0.117 0.48,0.234 0.72,0.351" />
    <path id="path4750" d="m 2478.87,825.84 c -0.29,-0.6 -0.91,-0.852 -1.51,-0.5 0.51,0.136 1.02,0.303 1.51,0.5" />
    <path id="path4752" d="m 2482.90,829.80 c 1.41,1.451 3.54,2.094 5.04,3.53 0.76,-1.82 -1.76,-4.458 -3.45,-4.779 -1.12,-0.215 -2.31,-1.518 -3.13,-2.252 -0.45,-0.396 -0.69,-0.886 -1.28,-1.104 -0.57,-0.211 -1.14,-0.07 -1.64,-0.505 0.78,1.986 2.32,4.403 4.46,5.11" />
    <path id="path4754" d="m 2482.04,838.44 c 0.44,-0.207 0.64,-0.307 0.58,-0.859 -0.77,-0.101 -0.96,0.185 -0.58,0.859" />
    <path id="path4756" d="m 2488.30,844.56 c 1.31,0.181 2.17,-0.164 3.41,0.472 0.71,0.362 2.23,0.875 2.56,-0.266 0.41,-1.368 -1.92,-3.518 -3.17,-3.645 -1.24,-0.125 -2.84,0.59 -3.69,-0.641 -0.54,-0.8 -1.25,-1.103 -1.88,-0.09 -0.98,1.557 1.35,3.853 2.77,4.17" />
    <path id="path4758" d="m 2486.94,833.54 c -0.19,-0.462 -0.27,-0.942 -0.22,-1.44 -1.33,0 -0.54,1.132 0.22,1.44" />
    <path id="path4760" d="m 2486.43,859.68 c 0.49,0.241 1.58,0.321 1.87,0.5 0.75,0.464 0.71,1.58 1.66,1.8 1.01,-1.364 -3.82,-3.901 -3.53,-2.3" />
    <path id="path4764" d="m 2490.90,838.58 c 0.35,-0.648 -0.1,-1.249 -0.8,-1.15 -0.11,0.589 0.21,1.043 0.8,1.15" />
    <path id="path4766" d="m 2490.68,839.16 c 0.41,-0.253 0.85,-0.47 1.3,-0.65 -0.6,-0.222 -1.11,0.06 -1.3,0.65" />
    <path id="path4768" d="m 2495.43,838.73 c 1.46,1.076 2.19,2.781 3.39,4.101 0.44,-0.871 -0.37,-4.128 -0.79,-5.047 -0.25,-0.551 -0.85,-1.665 -1.4,-1.956 -0.86,-0.451 0.58,-1.246 0.18,-1.824 -0.45,-0.644 -0.6,-1.706 -1.28,-2.173 -0.32,-0.221 -1.72,-0.765 -1.41,0.307 0.59,2.076 0.3,4.579 1.31,6.592" />
    <path id="path4770" d="m 2501.26,852.62 c 1.23,0.423 2.56,0.415 3.82,0.721 -0.76,-2.394 -1.4,-2.64 -3.38,-3.688 -0.65,-0.344 -3.69,-2.554 -4.11,-1.063 0.53,0.288 1.09,0.456 1.31,1.065 0.53,1.419 1.21,2.021 2.36,2.965" />
    <path id="path4772" d="m 2500.11,844.34 c 0.47,-1.208 -0.16,-2.522 -1.01,-3.38 0.1,0.677 0.1,1.352 -0.1,2.024 0,0.495 0.93,0.871 1.06,1.356" />
    <path id="path4774" d="m 2531.94,853.63 c 0.56,-0.75 2.15,-0.478 2.15,-1.66 -1.14,-0.313 -2.32,0.07 -2.88,1.16 0.24,0.167 0.48,0.334 0.73,0.5" />
    <path id="path4778" d="m 2538.27,860.76 c 0.22,-0.1 0.43,-0.193 0.65,-0.29 -0.24,-0.597 -0.75,-0.852 -1.3,-0.43 0.19,0.265 0.4,0.505 0.65,0.72" />
  </g><g id="vu" class="geo-shape country region-5" data-name="Vanuatu">
    <title id="title2486">Vanuatu</title>
    <g id="vu-" class="landxx coastxx vu">
      <path id="path6058" d="m 2539.86,883.51 c 0.9,-0.485 0.95,-2.087 -0.26,-1.235 -0.54,0.385 -0.74,1.482 0.26,1.235" />
      <path id="path6062" d="m 2540.00,880.27 c 0.87,-0.414 1.08,-1.368 0.43,-2.09 -0.99,0.428 -0.71,1.292 -0.43,2.09" />
      <path id="path6048" d="m 2535.53,890.42 c -0.32,-0.525 -0.37,-1.075 -0.14,-1.65 -1.19,0.476 -2.12,3.483 -2.23,0.43 0,-1.177 -1.45,-4.02 -1.6,-1.214 -0.1,1.271 0.6,2.455 0.14,3.712 -0.45,1.205 0.3,1.93 0.31,3.122 2.52,0 4.61,-1.787 3.52,-4.4" />
      <path id="path6052" d="m 2535.97,903.17 c 0.66,-0.423 3.39,-0.618 2.67,-1.974 -0.55,-1.031 -1.65,-1.551 -2.2,-2.623 -2.07,-4.024 -2.52,1.751 -1.05,0.486 0.88,1.222 -0.24,2.868 0.58,4.111" />
      <path id="path6054" d="m 2535.10,895.90 c 0.3,-0.339 0.32,-0.699 0.1,-1.08 -0.31,0.162 -0.57,0.376 -0.79,0.641 0.24,0.146 0.48,0.292 0.72,0.439" />
      <path id="path6056" d="m 2540.36,913.82 c 1.26,0.147 1.96,-1.662 0.93,-2.434 -0.73,-0.543 -2.22,1.054 -2.44,1.644 1.32,-0.926 0.1,0.54 1.51,0.79" />
      <path id="path6064" d="m 2540.50,893.59 c 0.54,-0.529 1.01,-1.13 1.37,-1.8 -0.72,0.115 -1.48,0.208 -1.92,0.864 -0.37,0.559 -0.2,1.048 0.55,0.936" />
      <path id="path6066" d="m 2541.29,901.15 c 0.52,-0.06 1,-0.227 1.45,-0.5 -0.47,-0.327 -0.77,-0.854 -0.65,-1.439 -0.82,-0.03 -1.44,0.572 -2.23,0.64 0.1,0.758 0.83,1.036 1.43,1.299" />
      <path id="path6068" d="m 2542.88,905.33 c 0.1,-0.745 -1.58,-1.563 -2.09,-1.87 -1.14,1.948 1.25,1.049 2.09,1.87" />
      <path id="path6072" d="m 2542.37,897.98 c 1.01,-0.778 1.07,-3.456 0.44,-4.46 -0.35,1.492 -0.64,2.919 -0.44,4.46" />
      <path id="path6074" d="m 2542.81,892.80 c 0.99,-0.868 0.99,-2.646 0.43,-3.74 -0.1,1.252 -0.42,2.48 -0.43,3.74" />
      <path id="path6076" d="m 2544.68,923.97 c 0.66,-0.405 0.33,-3.557 -0.94,-3.229 -0.48,0.124 -0.84,1.513 -0.92,1.918 -0.15,0.741 1.42,0.996 1.86,1.311" />
      <path id="path6078" d="m 2544.53,929.66 c 0.95,-0.986 -0.45,-1.887 0,-2.95 -1.77,0.184 -1.16,2.364 0,2.95" />
      <path id="path6080" d="m 2546.19,934.77 c 0.24,-0.213 0.46,-0.45 0.65,-0.71 -0.64,-0.416 -1.55,0.273 -0.65,0.71" />
    </g>
    <circle id="vu_" class="circlexx vu" r="6.01303" cy="901.727" cx="2538.45" />
  </g><g id="ws" class="geo-shape country region-6" data-name="Samoa">
    <title id="title2595">Samoa</title>
    <g id="ws-" class="landxx coastxx ws">
      <path id="path4782" d="m 2691.78,876.46 c -0.45,0.217 -0.9,0.24 -1.37,0.07 0.44,1.529 1.8,3.133 3.49,2.119 0.74,-0.44 0.85,-1.316 0.43,-2.016 -0.58,-0.968 -1.74,-0.331 -2.55,-0.172" />
      <path id="path4784" d="m 2699.62,881.21 c 0.43,-2.068 -3.23,-2.401 -4.39,-1.511 0.94,1.527 2.85,1.324 4.39,1.511" />
    </g>
    <circle id="ws_" class="circlexx ws" r="6.01303" cy="877.049" cx="2694.51" />
  </g><g id="to" class="geo-shape country region-7" data-name="Tonga">
    <title id="title2660">Tonga</title>
    <g id="to-" class="landxx coastxx to">
      <path id="path5930" d="m 2656.64,943.559 c 0.29,-0.42 0.61,-0.827 0.94,-1.22 -0.74,0.904 -1.31,-0.256 -2.17,-0.08 0.3,0.532 0.71,0.966 1.23,1.3" />
      <path id="path5932" d="m 2657.86,945.219 c 0,-0.28 -0.1,-0.547 -0.21,-0.8 0.1,0.267 0.14,0.533 0.21,0.8" />
    </g>
    <circle id="to_" class="circlexx to" r="6.01303" cy="942.448" cx="2657.31" />
  </g><g id="ki" class="geo-shape country region-0" data-name="Kiribati">
    <title id="title2667">Kiribati</title>
    <g id="ki-" class="landxx coastxx ki">
      <path id="path4790" d="m 68.9553,744.838 c 0.144,-0.05 0.288,-0.1 0.432,-0.145 -0.548,-0.608 -1.13,-2.463 -2.088,-2.52 0.364,0.886 0.538,1.59 -0.576,1.368 0.608,0.668 1.578,0.697 2.232,1.297" />
      <path id="path35688" d="m 2600.31,742.384 c 0.23,-0.648 0.17,-1.237 -0.72,-0.5 0.24,0.167 0.48,0.334 0.72,0.5" />
    </g>
    <circle id="ki_" class="circlexx ki" r="6.01303" cy="743.234" cx="2597.54" />
  </g><g id="tv" class="geo-shape country region-1" data-name="Tuvalu">
    <title id="title2855">Tuvalu</title>
    <path id="tv-" class="landxx coastxx tv" d="m 2630.34,832.243 c -0.63,0.08 -0.98,0.525 -0.81,1.15 0.39,-0.305 0.65,-0.688 0.81,-1.15" />
    <circle id="tv_" class="circlexx tv" r="6.01303" cy="830.452" cx="2628.55" />
  </g><g id="nr" class="geo-shape country region-2" data-name="Nauru">
    <title id="title2860">Nauru</title>
    <path id="nr-" class="landxx coastxx nr" d="m 2531.1,743.146 c 0.22,-0.1 0.43,-0.193 0.65,-0.29 -0.24,-0.597 -0.75,-0.852 -1.3,-0.43 0.19,0.265 0.4,0.505 0.65,0.72" />
    <circle id="nr_" class="circlexx nr" r="6.01303" cy="741.483" cx="2532.7" />
  </g><g id="pw" class="geo-shape country region-3" data-name="Palau">
    <title id="title2694">Palau</title>
    <path id="pw-" class="landxx coastxx pw" d="m 2296.14,695.95 c 0.57,-0.779 1.04,-2.01 0.57,-2.952 -0.63,0.75 -1.31,2.033 -0.57,2.952" />
    <circle id="pw_" class="circlexx pw" r="6.01303" cy="691.098" cx="2292.37" />
  </g><g id="mh" class="landxx coastxx mh geo-shape country region-4" data-name="Marshall Islands">
    <title id="title2798">Marshall Islands</title>
    <path id="mh-" class="landxx coastxx mh" d="m 2577.82,701.785 c 0.2,-0.32 0.17,-0.633 -0.1,-0.936 -0.27,0.198 -0.48,0.438 -0.65,0.72 0.24,0.07 0.48,0.143 0.72,0.216" />
    <circle id="mh_" class="circlexx mh" r="6.01303" cy="700.737" cx="2574.14" />
  </g><g id="fm" class="geo-shape country region-5" data-name="Micronesia, Federated States of">
    <title id="title2674">Micronesia, Federated States of</title>
    <path id="fm-" class="landxx coastxx fm" d="m 2477.21,700.918 c 1.31,-0.308 0.32,-1.855 -0.72,-1.513 0,0.605 0.27,1.109 0.72,1.513" />
    <circle id="fm_" class="circlexx fm" r="6.01303" cy="695.964" cx="2477.97" />
  </g></svg>